<svg data-v-1e121de1="" version="1.0" xmlns="http://www.w3.org/2000/svg" xmlns:xlink="http://www.w3.org/1999/xlink" width="100%" height="100%" viewBox="0 0 340.000000 250.000000" preserveAspectRatio="xMidYMid meet" color-interpolation-filters="sRGB" class="el-tooltip" style="margin: auto;"><rect data-v-1e121de1="" x="0" y="0" width="100%" height="100%" fill="#fff" fill-opacity="1" class="background"><g data-v-1e121de1="" fill="#55b7d9" class="icon-text-wrapper icon-svg-group iconsvg" transform="translate(52.8350830078125,103.65999984741211)"><g class="iconsvg-imagesvg" transform="translate(0,3.6286983489990234)"><rect fill="#55b7d9" fill-opacity="0" stroke-width="2" x="0" y="0" width="60" height="35.42260381229524" class="image-rect"></rect> <svg x="0" y="0" width="60" height="35.42260381229524" filtersec="colorsb9868802870" class="image-svg-svg primary"><svg xmlns="http://www.w3.org/2000/svg" viewBox="0 0.0030921055004000664 58.45000457763672 34.50752258300781"><title>资源 6</title><g id="图层_2" data-name="图层 2"><g id="Layer_1" data-name="Layer 1"><path d="M41.93,13.76a2,2,0,0,0-.76-.71L30.45,7.86l-.1-.05a2.9,2.9,0,0,0-2.24,0l-.1.05L17.29,13.05a1.93,1.93,0,0,0-.77.71l12.71,6.15Z" fill="#55b7d9"></path><path d="M29.23,19.91v14.6a2.67,2.67,0,0,0,1.12-.22l.1,0,10.72-5.19a2.16,2.16,0,0,0,1.12-1.78V14.83a2,2,0,0,0-.36-1.07Z" fill="#85e0ff"></path><path d="M16.52,13.76a2,2,0,0,0-.35,1.07V27.27a2.16,2.16,0,0,0,1.12,1.78L28,34.24l.1,0a2.63,2.63,0,0,0,1.12.22V19.91Z" fill="#377da3"></path><path d="M57.34,5.46,46.62.27,46.51.22a3,3,0,0,0-2.23,0l-.11.05L33.46,5.46c-.62.3-.62.78,0,1.08l11.93,5.78L58.1,6.17A2,2,0,0,0,57.34,5.46Z" fill="#55b7d9"></path><path d="M45.39,12.32V26a.72.72,0,0,0,1.12.7l.11-.05,10.72-5.19a2.15,2.15,0,0,0,1.11-1.78V7.24a2,2,0,0,0-.35-1.07Z" fill="#85e0ff"></path><path d="M25,5.46,14.28.27l-.1-.05a3,3,0,0,0-2.24,0l-.1.05L1.12,5.46a1.93,1.93,0,0,0-.77.71l12.71,6.15L25,6.54C25.62,6.24,25.62,5.76,25,5.46Z" fill="#55b7d9"></path><path d="M0,7.24V19.68a2.14,2.14,0,0,0,1.12,1.78l10.72,5.19.1.05a.72.72,0,0,0,1.12-.7V12.32L.35,6.17A2.09,2.09,0,0,0,0,7.24Z" fill="#377da3"></path></g></g></svg></svg> <!----></g> <g transform="translate(67,0)"><g fill-rule="" class="tp-name iconsvg-namesvg"><g><path d="M20.01-21.26L14.24-20.95L14.52-4.83L7.73-3.88L7.65-21.26L2.04-21.03L2.47 1.37L14.59 0.31L14.63 1.65L20.09 1.41ZM43.39-20.28L24.48-20.01L24.36 11.61L29.90 11.46L29.70 2.08L43.90 1.65ZM29.54-3.30L29.27-14.99L38.57-15.50L38.80-3.14ZM48.18 1.41L53.12 1.37L53.55-31.07L47.71-30.84ZM58.07 1.41L77.72 1.02L78.04-21.03L57.56-20.52ZM63.01-3.41L62.81-15.77L72.74-15.73L72.50-4.04ZM82.00-15.26L98.12-16.44L97.89-12.79L82.39-12.44L82.67 1.37L97.14 0.71L97.06 1.77L102.48 1.84L102.79-20.64L81.76-20.28ZM87.18-8.28L97.65-8.12L97.38-4.04L87.45-3.18ZM121.31-21.34L106.72-20.91L107.19 1.02L126.06 0.78L126.73-30.88L121.27-30.99ZM121.35-15.97L121.39-4.32L112.09-3.77L111.82-16.13ZM135.91-15.77L146.81-16.05L147.01-12.20L138.93-12.28L138.73-7.53L151.32-7.89L151.56-21.11L130.69-20.56L131.16 1.37L152.19 1.14L151.87-4.16L136.14-3.41ZM167.96-21.07L161.17-18.71L161.17-21.26L155.84-21.15L155.56 1.77L161.45 1.53L161.25-13.65L169.37-15.73Z" transform="translate(-2.040156935148858, 31.07315947380568)"></path></g> </g> <!----></g></g>
</svg>